<?xml version="1.0" standalone="no"?>
<!DOCTYPE svg PUBLIC "-//W3C//DTD SVG 20010904//EN"
 "http://www.w3.org/TR/2001/REC-SVG-20010904/DTD/svg10.dtd">
<svg version="1.0" xmlns="http://www.w3.org/2000/svg"
 width="77.000000pt" height="67.000000pt" viewBox="0 0 77.000000 67.000000"
 preserveAspectRatio="xMidYMid meet">
<metadata>
Created by potrace 1.10, written by Peter Selinger 2001-2011
</metadata>
<g transform="translate(0.000000,67.000000) scale(0.100000,-0.100000)"
fill="#000000" stroke="none">
<path d="M302 653 c-17 -32 -23 -144 -10 -179 9 -27 9 -38 -2 -59 -12 -23 -15
-24 -23 -9 -7 13 -5 21 7 29 20 15 21 29 1 21 -17 -6 -21 9 -5 19 6 4 7 11 4
17 -11 18 -34 -22 -29 -49 3 -12 7 -34 10 -48 3 -14 12 -25 19 -25 8 0 17 -15
20 -35 6 -28 2 -42 -18 -68 -13 -17 -26 -41 -27 -51 -3 -12 -16 -23 -37 -28
-17 -5 -32 -13 -32 -18 0 -5 -24 -16 -52 -24 -72 -21 -113 -56 -113 -95 0 -17
4 -31 9 -31 4 0 6 11 4 23 -3 14 0 24 7 24 7 0 10 -10 7 -24 -3 -18 -1 -22 11
-18 8 4 21 -1 30 -10 10 -9 18 -11 22 -5 3 6 -1 13 -9 16 -9 3 -16 10 -16 16
0 5 5 6 10 3 15 -9 12 2 -6 31 -9 13 -14 27 -10 31 3 3 6 2 6 -4 0 -6 11 -10
24 -10 17 0 23 4 19 14 -4 10 -9 11 -19 2 -9 -7 -14 -8 -14 -1 0 8 22 22 35
22 2 0 36 -83 48 -120 3 -8 6 0 6 18 1 20 -7 45 -19 59 -11 15 -18 29 -15 32
4 3 10 -1 15 -9 8 -13 11 -13 22 -1 7 8 8 11 2 8 -7 -4 -15 0 -18 9 -8 21 -9
20 34 27 27 5 31 4 18 -4 -19 -10 -25 -49 -9 -49 5 0 7 9 4 20 -3 11 0 20 6
20 6 0 11 -16 11 -35 0 -19 -4 -35 -10 -35 -5 0 -10 -11 -10 -24 0 -14 5 -28
10 -31 6 -3 10 3 10 15 0 12 5 18 10 15 6 -3 10 2 10 11 0 16 1 16 15 -2 13
-18 14 -18 15 -1 0 10 5 15 10 12 6 -3 10 2 10 11 0 12 12 5 39 -25 33 -36 40
-39 44 -24 4 16 5 16 6 1 1 -24 21 -23 21 0 0 10 -16 37 -36 61 -35 40 -37 41
-60 26 -13 -8 -35 -20 -49 -25 -24 -9 -25 -8 -24 33 0 28 3 36 8 24 6 -17 8
-18 20 -3 10 12 17 14 27 5 11 -9 14 -8 14 1 0 9 4 9 17 -1 13 -11 12 -5 -5
22 -12 20 -22 51 -22 68 l0 32 32 -36 c17 -20 49 -44 71 -52 27 -11 35 -18 25
-24 -7 -5 -8 -9 -3 -9 6 0 1 -7 -9 -15 -11 -8 -16 -18 -12 -22 4 -4 28 15 53
42 25 28 43 42 39 33 -3 -10 -9 -26 -13 -35 -6 -16 -5 -16 10 -4 9 7 17 22 17
33 0 17 2 18 15 8 9 -7 13 -21 10 -31 -4 -13 -1 -19 9 -19 22 0 20 22 -4 50
-11 13 -20 26 -20 30 0 3 14 33 31 66 45 85 50 108 55 219 4 87 2 104 -16 133
-14 23 -27 32 -45 32 -15 0 -24 -4 -20 -10 3 -5 14 -10 23 -10 13 0 14 -2 4
-9 -10 -6 -10 -10 3 -21 8 -7 15 -19 15 -26 0 -8 5 -14 11 -14 5 0 7 -5 3 -12
-5 -7 -11 -5 -21 7 -7 11 -13 14 -13 9 0 -6 -16 -8 -37 -6 -36 4 -37 4 -23
-14 14 -17 14 -17 -10 -1 -29 20 -60 22 -60 5 0 -10 -3 -9 -9 1 -6 9 -11 10
-15 2 -4 -6 -14 -11 -23 -11 -9 0 -24 -7 -34 -16 -16 -14 -17 -13 -14 23 2 21
7 53 10 71 6 26 4 32 -8 32 -9 0 -20 -8 -25 -17z m155 -103 c10 -15 10 -22 -3
-35 -14 -13 -13 -15 10 -15 13 0 31 7 39 15 8 8 18 11 21 7 4 -3 11 0 16 8 7
10 10 11 10 3 0 -7 7 -13 15 -13 25 0 18 -145 -7 -182 -19 -27 -42 -36 -51
-20 -2 4 -3 2 -1 -4 1 -5 -13 -11 -32 -11 -19 -1 -34 3 -34 7 0 4 -7 11 -16
14 -8 3 -12 2 -9 -4 3 -6 0 -10 -7 -11 -7 0 -3 -4 10 -10 13 -5 20 -13 17 -19
-3 -5 4 -11 17 -11 16 -1 12 -4 -12 -9 -32 -7 -32 -7 -7 -9 27 -1 66 15 79 34
5 6 8 3 8 -6 0 -30 -46 -69 -83 -69 -45 0 -117 53 -117 86 0 29 3 40 11 37 4
-1 0 16 -8 38 -12 36 -11 47 4 95 9 30 21 54 26 54 4 0 15 7 23 15 9 8 23 15
31 15 14 0 14 -2 -1 -19 -10 -11 -16 -26 -13 -33 4 -9 6 -7 6 4 1 9 10 20 21
23 15 5 19 12 15 26 -8 25 7 25 22 -1z m-151 -387 c-4 -4 -11 -1 -16 7 -7 10
-10 11 -10 3 0 -19 -17 -16 -24 4 -10 26 16 35 38 13 11 -11 17 -23 12 -27z"/>
<path d="M369 442 c11 -8 11 -10 0 -15 -8 -3 1 -6 19 -6 18 -1 31 -5 27 -10
-3 -6 4 -9 15 -8 20 1 35 23 21 31 -16 10 -96 18 -82 8z"/>
<path d="M487 424 c-4 -4 -7 -16 -7 -26 0 -16 6 -19 38 -16 29 2 37 7 37 23 0
15 -8 21 -30 23 -17 2 -34 0 -38 -4z"/>
<path d="M373 334 c-23 -10 6 -53 35 -54 7 0 3 9 -9 21 -17 17 -19 23 -8 30
15 9 2 11 -18 3z"/>
<path d="M420 659 c-12 -9 -12 -10 4 -5 11 4 26 0 38 -10 18 -17 17 -18 -9
-36 -21 -13 -23 -18 -10 -18 9 0 17 5 17 10 0 6 12 10 28 10 l27 1 -35 29
c-38 34 -39 34 -60 19z"/>
<path d="M568 163 c5 -10 7 -24 4 -32 -3 -11 3 -12 30 -7 33 6 36 4 45 -26 10
-30 11 -31 12 -8 1 20 3 22 11 10 9 -13 11 -13 20 0 8 13 10 12 10 -3 0 -11 4
-15 12 -11 8 5 9 2 5 -10 -4 -10 -7 -20 -7 -22 0 -2 -4 -4 -10 -4 -5 0 -10 7
-10 15 0 8 -4 15 -10 15 -22 0 -5 -33 23 -43 9 -3 17 -13 17 -21 0 -8 8 -14
19 -13 11 0 17 5 15 9 -3 5 -9 6 -14 3 -14 -9 -23 36 -10 49 10 8 11 6 5 -12
-7 -25 12 -31 22 -6 8 21 -33 62 -82 82 -22 9 -41 14 -42 12 -1 -3 -8 2 -15
11 -7 10 -24 20 -36 24 -21 6 -22 4 -14 -12z"/>
<path d="M456 101 c-26 -17 -34 -27 -24 -29 9 -2 15 -15 16 -33 1 -45 12 -49
12 -5 0 33 2 36 15 22 8 -8 15 -22 15 -30 0 -9 5 -16 10 -16 6 0 10 8 10 18 0
14 2 15 10 2 5 -8 12 -11 16 -7 4 4 -1 16 -11 27 -9 10 -20 32 -24 48 l-6 29
-39 -26z"/>
<path d="M614 104 c3 -9 6 -27 6 -40 0 -14 4 -23 9 -20 5 4 8 14 6 24 -2 9 -4
25 -4 35 -1 9 -6 17 -12 17 -6 0 -8 -7 -5 -16z"/>
<path d="M551 67 c2 -26 7 -53 12 -59 5 -8 6 8 3 41 -6 67 -18 82 -15 18z"/>
</g>
</svg>
