<svg xmlns="http://www.w3.org/2000/svg" viewBox="0 0 48 48"><title>42-Education</title><g id="_42-Education" data-name="42-Education"><rect x="23" y="37" width="2" height="6"/><rect x="35" y="37" width="2" height="6"/><rect x="11" y="37" width="2" height="6"/><rect x="23" y="17" width="2" height="7"/><path d="M24,18a1,1,0,0,1-.388-.078l-19-8a1,1,0,0,1,0-1.844l19-8a1.013,1.013,0,0,1,.776,0l19,8a1,1,0,0,1,0,1.844l-19,8A1,1,0,0,1,24,18ZM7.577,9,24,15.915,40.423,9,24,2.085Z"/><rect x="10" y="11" width="2" height="15"/><rect x="36" y="11" width="2" height="15"/><path d="M42,23H40a1,1,0,0,1-1-1V16a1,1,0,0,1,1-1h2V9h2V21a1,1,0,0,1-.293.707l-1,1A1,1,0,0,1,42,23Zm-1-2h.586L42,20.586V17H41Z"/><rect x="22" y="8" width="4" height="2"/><rect x="7" y="29" width="2" height="4"/><path d="M42,34H3a1,1,0,0,1-1-1V29a1,1,0,0,1,1-1H42a1.006,1.006,0,0,1,.555.168l3,2a1,1,0,0,1,0,1.664l-3,2A1.006,1.006,0,0,1,42,34ZM4,32H41.7l1.5-1-1.5-1H4Z"/><path d="M46,48H2a2,2,0,0,1-2-2V38a2,2,0,0,1,2-2H46a2,2,0,0,1,2,2v8A2,2,0,0,1,46,48ZM2,38H2v8H46V38Z"/><rect x="29" y="37" width="2" height="5"/><rect x="17" y="37" width="2" height="5"/><rect x="5" y="37" width="2" height="5"/><rect x="41" y="37" width="2" height="5"/></g></svg>