<svg version="1.2" xmlns="http://www.w3.org/2000/svg" viewBox="0 0 900 600" width="900" height="600">
	<title>sape</title>
	<style>
		.s0 { fill: #610000 } 
		.s1 { fill: #760011 } 
		.s2 { fill: #8b001f } 
		.s3 { fill: #a0002d } 
		.s4 { fill: #b60c3d } 
		.s5 { fill: #cc2c4d } 
		.s6 { fill: #d73855 } 
	</style>
	<g>
		<path class="s0" d="m900 425.9c-10-75.8-20-151.5-31.3-167.9-11.4-16.4-24.1 26.6-49.5 69.9-25.4 43.4-63.5 87.1-65.3 57.4-1.9-29.6 32.4-132.5 22.9-150.5-9.5-18.1-62.8 48.6-73.6 50.4-10.9 1.7 20.8-61.4 4.2-67.8-16.7-6.3-81.7 44.1-119.8 59.4-38.2 15.2-49.5-4.7-38.1-34.9 11.3-30.2 45.3-70.7 86.3-103.2 41-32.6 88.9-57.2 56.4-59.9-32.5-2.6-145.4 16.7-155.8 10.8-10.5-5.9 81.6-37 88.2-56.2 6.7-19.1-71.9-26.3-150.5-33.4h425.9z"/>
		<path class="s1" d="m900 365.1c-8.6-65-17.1-129.9-26.8-144-9.8-14-20.7 22.8-42.5 60-21.7 37.1-54.4 74.6-56 49.2-1.6-25.4 27.8-113.6 19.7-129.1-8.2-15.5-53.8 41.7-63.1 43.2-9.3 1.6 17.9-52.6 3.6-58-14.3-5.5-70 37.7-102.7 50.8-32.7 13.1-42.4-3.9-32.6-29.8 9.7-25.9 38.8-60.6 73.9-88.5 35.2-28 76.2-49.1 48.4-51.3-27.9-2.3-124.6 14.3-133.6 9.2-8.9-5 69.9-31.7 75.7-48.1 5.7-16.5-61.7-22.6-129.1-28.7h365.1z"/>
		<path class="s2" d="m900 304.2c-7.1-54.1-14.3-108.2-22.4-119.9-8.1-11.7-17.2 19-35.3 49.9-18.2 31-45.4 62.2-46.7 41-1.3-21.1 23.2-94.6 16.4-107.5-6.8-12.9-44.9 34.7-52.6 36-7.7 1.3 14.9-43.8 3-48.4-11.9-4.5-58.3 31.5-85.5 42.4-27.3 10.9-35.4-3.3-27.3-24.9 8.1-21.6 32.4-50.5 61.7-73.8 29.2-23.2 63.5-40.8 40.3-42.7-23.2-1.9-103.9 11.9-111.3 7.7-7.5-4.2 58.2-26.4 63-40.1 4.8-13.7-51.4-18.8-107.5-23.9h304.2z"/>
		<path class="s3" d="m900 243.4c-5.7-43.3-11.4-86.6-17.9-96-6.5-9.3-13.8 15.2-28.3 40-14.5 24.8-36.2 49.7-37.3 32.8-1.1-16.9 18.5-75.7 13.1-86.1-5.4-10.3-35.9 27.8-42.1 28.9-6.2 1 11.9-35.1 2.4-38.7-9.5-3.7-46.6 25.1-68.4 33.9-21.8 8.7-28.3-2.7-21.8-19.9 6.5-17.3 25.9-40.5 49.3-59.1 23.4-18.6 50.8-32.7 32.3-34.2-18.6-1.5-83.1 9.6-89.1 6.2-5.9-3.4 46.6-21.2 50.5-32.1 3.8-10.9-41.1-15-86.1-19.1h243.4z"/>
		<path class="s4" d="m900 182.5c-4.3-32.4-8.6-64.9-13.4-71.9-4.9-7.1-10.4 11.4-21.2 29.9-10.9 18.6-27.2 37.3-28 24.6-0.8-12.6 13.9-56.7 9.8-64.5-4.1-7.7-26.9 20.8-31.6 21.6-4.6 0.8 9-26.3 1.8-29-7.1-2.7-34.9 18.9-51.3 25.4-16.3 6.6-21.2-2-16.3-14.9 4.8-13 19.4-30.3 37-44.3 17.5-13.9 38.1-24.5 24.1-25.6-13.9-1.2-62.3 7.1-66.7 4.6-4.5-2.5 34.9-15.9 37.8-24.1 2.9-8.2-30.8-11.2-64.5-14.3h182.5z"/>
		<path class="s5" d="m900 121.7c-2.9-21.7-5.7-43.3-8.9-48-3.3-4.7-6.9 7.6-14.2 20-7.2 12.4-18.1 24.9-18.7 16.4-0.5-8.5 9.3-37.9 6.6-43-2.7-5.2-17.9 13.9-21 14.4-3.1 0.5 5.9-17.6 1.2-19.4-4.8-1.8-23.4 12.6-34.3 17-10.9 4.3-14.1-1.3-10.8-10 3.2-8.6 12.9-20.2 24.6-29.5 11.7-9.3 25.4-16.3 16.1-17.1-9.3-0.7-41.5 4.8-44.5 3.1-3-1.7 23.3-10.6 25.2-16 1.9-5.5-20.5-7.6-43-9.6h121.7z"/>
		<path class="s6" d="m900 60.8c-1.4-10.8-2.9-21.6-4.5-23.9-1.6-2.4-3.4 3.8-7 9.9-3.7 6.2-9.1 12.5-9.4 8.2-0.2-4.2 4.7-18.9 3.3-21.5-1.4-2.5-9 7-10.5 7.2-1.6 0.3 3-8.7 0.6-9.6-2.4-0.9-11.7 6.3-17.1 8.4-5.5 2.2-7.1-0.6-5.5-4.9 1.6-4.4 6.5-10.1 12.4-14.8 5.8-4.6 12.7-8.2 8-8.5-4.6-0.4-20.8 2.3-22.2 1.5-1.5-0.8 11.6-5.3 12.6-8 0.9-2.8-10.3-3.8-21.5-4.8h60.8z"/>
	</g>
	<g>
		<path class="s1" d="m0 234.9c7.1 62 14.2 123.9 30 117.9 15.8-5.9 40.3-79.8 54.2-94.3 13.9-14.6 17.3 30.2 26.2 50.5 8.9 20.2 23.3 15.9 30.1 23.4 6.7 7.5 5.8 26.8 32.9 16.4 27.1-10.4 82.4-50.4 68.7-22.1-13.7 28.4-96.3 125.2-97.3 145-0.9 19.8 79.8-37.4 116.3-51.9 36.5-14.5 28.9 13.7 3.2 41.5-25.7 27.8-69.5 55.1-74.3 66.6-4.8 11.5 29.4 7.2 67.1 8.7 37.6 1.5 78.7 8.8 97.3 20.4 18.6 11.5 14.6 27.2 10.7 43h-365.1z"/>
		<path class="s2" d="m0 295.8c5.9 51.6 11.9 103.2 25 98.2 13.2-5 33.6-66.5 45.1-78.6 11.6-12.1 14.5 25.2 21.9 42.1 7.4 16.8 19.4 13.2 25.1 19.5 5.6 6.2 4.8 22.3 27.4 13.7 22.6-8.7 68.6-42.1 57.2-18.4-11.4 23.6-80.2 104.3-81 120.8-0.8 16.5 66.4-31.2 96.9-43.3 30.4-12.1 24.1 11.5 2.7 34.6-21.5 23.1-57.9 45.9-61.9 55.5-4 9.6 24.4 6.1 55.8 7.3 31.4 1.2 65.6 7.3 81.1 16.9 15.5 9.6 12.2 22.8 8.9 35.9h-304.2z"/>
		<path class="s3" d="m0 356.6c4.7 41.3 9.5 82.6 20 78.6 10.5-4 26.8-53.2 36.1-62.9 9.3-9.7 11.5 20.2 17.5 33.7 5.9 13.5 15.5 10.6 20 15.6 4.5 5 3.9 17.8 22 10.9 18.1-6.9 54.9-33.6 45.8-14.7-9.1 18.9-64.2 83.5-64.8 96.7-0.7 13.2 53.1-25 77.5-34.6 24.3-9.7 19.2 9.1 2.1 27.6-17.1 18.5-46.3 36.8-49.5 44.5-3.2 7.6 19.6 4.8 44.7 5.8 25.1 1 52.5 5.8 64.9 13.5 12.4 7.7 9.7 18.2 7.1 28.7h-243.4z"/>
		<path class="s4" d="m0 417.5c3.6 30.9 7.1 61.9 15 58.9 7.9-3 20.1-39.9 27.1-47.2 6.9-7.2 8.6 15.2 13.1 25.3 4.4 10.1 11.7 7.9 15 11.7 3.4 3.7 2.9 13.4 16.5 8.2 13.6-5.2 41.2-25.2 34.3-11-6.8 14.2-48.1 62.5-48.6 72.4-0.5 9.9 39.9-18.7 58.1-25.9 18.3-7.3 14.5 6.9 1.7 20.7-12.9 13.9-34.8 27.6-37.2 33.4-2.4 5.7 14.7 3.6 33.5 4.3 18.9 0.8 39.4 4.4 48.7 10.2 9.3 5.7 7.3 13.6 5.3 21.5h-182.5z"/>
		<path class="s5" d="m0 478.3c2.4 20.7 4.7 41.3 10 39.3 5.3-2 13.4-26.6 18.1-31.4 4.6-4.9 5.7 10 8.7 16.8 3 6.7 7.8 5.3 10 7.8 2.3 2.5 2 8.9 11 5.5 9-3.5 27.5-16.8 22.9-7.4-4.6 9.5-32.1 41.7-32.4 48.3-0.3 6.6 26.6-12.4 38.7-17.3 12.2-4.8 9.7 4.6 1.1 13.9-8.6 9.2-23.2 18.3-24.8 22.2-1.6 3.8 9.8 2.4 22.4 2.9 12.5 0.5 26.2 2.9 32.4 6.8 6.2 3.8 4.9 9 3.6 14.3h-121.7z"/>
		<path class="s6" d="m0 539.2c1.2 10.3 2.4 20.6 5 19.6 2.6-1 6.7-13.3 9-15.7 2.3-2.4 2.9 5 4.4 8.4 1.5 3.4 3.9 2.6 5 3.9 1.1 1.2 1 4.5 5.5 2.7 4.5-1.7 13.7-8.4 11.4-3.6-2.2 4.7-16 20.8-16.2 24.1-0.1 3.3 13.3-6.2 19.4-8.6 6.1-2.5 4.8 2.3 0.6 6.9-4.3 4.6-11.6 9.2-12.4 11.1-0.8 1.9 4.9 1.2 11.1 1.4 6.3 0.3 13.2 1.5 16.3 3.4 3.1 1.9 2.4 4.6 1.7 7.2h-60.8z"/>
	</g>
</svg>